<?xml version="1.0" encoding="UTF-8" standalone="no"?>
<svg width="200.378mm" height="25.4mm"
 xmlns="http://www.w3.org/2000/svg" xmlns:xlink="http://www.w3.org/1999/xlink"  version="1.2" baseProfile="tiny">
<title>Qt SVG Document</title>
<desc>Generated with Qt</desc>
<defs>
</defs>
<g fill="none" stroke="black" stroke-width="1" fill-rule="evenodd" stroke-linecap="square" stroke-linejoin="bevel" >

<g fill="none" stroke="#000000" stroke-opacity="1" stroke-width="1" stroke-linecap="square" stroke-linejoin="bevel" transform="matrix(1,0,0,1,0,0)"
font-family="Ubuntu" font-size="11" font-weight="400" font-style="normal" 
>
</g>

<g fill="none" stroke="#000000" stroke-opacity="1" stroke-width="1" stroke-linecap="square" stroke-linejoin="bevel" transform="matrix(1,0,0,1,0,0)"
font-family="Ubuntu" font-size="11" font-weight="400" font-style="normal" 
>
</g>

<g fill="none" stroke="#000000" stroke-opacity="1" stroke-width="1" stroke-linecap="square" stroke-linejoin="bevel" transform="matrix(2,0,0,2,-0.0016,72)"
font-family="Ubuntu" font-size="11" font-weight="400" font-style="normal" 
>
</g>

<g fill="#ffffff" fill-opacity="1" stroke="none" transform="matrix(2,0,0,2,-0.0016,72)"
font-family="Ubuntu" font-size="11" font-weight="400" font-style="normal" 
>
<rect x="0.0008" y="-36" width="283.99" height="36"/>
</g>

<g fill="none" stroke="#000000" stroke-opacity="1" stroke-width="1" stroke-linecap="square" stroke-linejoin="bevel" transform="matrix(2,0,0,2,-0.0016,72)"
font-family="Ubuntu" font-size="11" font-weight="400" font-style="normal" 
>
</g>

<g fill="none" stroke="#000000" stroke-opacity="1" stroke-width="1" stroke-linecap="square" stroke-linejoin="bevel" transform="matrix(2,0,0,2,-0.0016,72)"
font-family="Ubuntu" font-size="11" font-weight="400" font-style="normal" 
>
</g>

<g fill="none" stroke="#000000" stroke-opacity="1" stroke-width="1" stroke-linecap="square" stroke-linejoin="bevel" transform="matrix(2,0,0,2,-0.0016,72)"
font-family="Ubuntu" font-size="11" font-weight="400" font-style="normal" 
>
</g>

<g fill="none" stroke="#000000" stroke-opacity="1" stroke-width="1" stroke-linecap="square" stroke-linejoin="bevel" transform="matrix(2,0,0,2,-0.0016,72)"
font-family="Ubuntu" font-size="11" font-weight="400" font-style="normal" 
>
</g>

<g fill="none" stroke="#000000" stroke-opacity="1" stroke-width="1" stroke-linecap="square" stroke-linejoin="round" transform="matrix(2,0,0,2,-0.0016,72)"
font-family="Ubuntu" font-size="11" font-weight="400" font-style="normal" 
>
<rect x="0.5008" y="-35.5" width="77.9984" height="35"/>
</g>

<g fill="none" stroke="#000000" stroke-opacity="1" stroke-width="1" stroke-linecap="square" stroke-linejoin="bevel" transform="matrix(2,0,0,2,-0.0016,72)"
font-family="Ubuntu" font-size="11" font-weight="400" font-style="normal" 
>
</g>

<g fill="none" stroke="#000000" stroke-opacity="1" stroke-width="1" stroke-linecap="square" stroke-linejoin="bevel" transform="matrix(2,0,0,2,29.764,22)"
font-family="Ubuntu" font-size="11" font-weight="400" font-style="normal" 
>
</g>

<g fill="none" stroke="#000000" stroke-opacity="1" stroke-width="1" stroke-linecap="square" stroke-linejoin="bevel" transform="matrix(2,0,0,2,29.764,22)"
font-family="sans" font-size="11" font-weight="100" font-style="normal" 
>
</g>

<g fill="#000000" fill-opacity="1" stroke="#000000" stroke-opacity="1" stroke-width="1" stroke-linecap="square" stroke-linejoin="round" transform="matrix(2,0,0,2,29.764,22)"
font-family="sans" font-size="11" font-weight="100" font-style="normal" 
>
<path vector-effect="none" fill-rule="nonzero" d="M2.79688,2.98438 L3.70313,2.98438 L0.90625,12.0156 L0,12.0156 L2.79688,2.98438 M9.0625,5.21875 L9.0625,6.14063 C8.79167,5.98438 8.51563,5.86719 8.23438,5.78906 C7.95313,5.71094 7.66667,5.67188 7.375,5.67188 C6.73958,5.67188 6.24479,5.875 5.89063,6.28125 C5.53646,6.6875 5.35938,7.26042 5.35938,8 C5.35938,8.72917 5.53646,9.29688 5.89063,9.70313 C6.24479,10.1094 6.73958,10.3125 7.375,10.3125 C7.66667,10.3125 7.95313,10.276 8.23438,10.2031 C8.51563,10.1302 8.79167,10.0156 9.0625,9.85938 L9.0625,10.7656 C8.79167,10.901 8.50781,11 8.21094,11.0625 C7.91406,11.125 7.59896,11.1563 7.26563,11.1563 C6.35938,11.1563 5.64063,10.8724 5.10938,10.3047 C4.57813,9.73698 4.3125,8.96875 4.3125,8 C4.3125,7.02083 4.58073,6.25 5.11719,5.6875 C5.65365,5.125 6.39063,4.84375 7.32813,4.84375 C7.64063,4.84375 7.9401,4.875 8.22656,4.9375 C8.51302,5 8.79167,5.09375 9.0625,5.21875 M15.4688,6.14063 C15.7188,5.69271 16.0156,5.36458 16.3594,5.15625 C16.7031,4.94792 17.1094,4.84375 17.5781,4.84375 C18.2031,4.84375 18.6849,5.0625 19.0234,5.5 C19.362,5.9375 19.5313,6.5625 19.5313,7.375 L19.5313,11 L18.5313,11 L18.5313,7.40625 C18.5313,6.82292 18.4297,6.39323 18.2266,6.11719 C18.0234,5.84115 17.7135,5.70313 17.2969,5.70313 C16.7865,5.70313 16.3828,5.8724 16.0859,6.21094 C15.7891,6.54948 15.6406,7.01042 15.6406,7.59375 L15.6406,11 L14.6406,11 L14.6406,7.40625 C14.6406,6.82292 14.5391,6.39323 14.3359,6.11719 C14.1328,5.84115 13.8177,5.70313 13.3906,5.70313 C12.8906,5.70313 12.4922,5.8724 12.1953,6.21094 C11.8984,6.54948 11.75,7.01042 11.75,7.59375 L11.75,11 L10.75,11 L10.75,4.98438 L11.75,4.98438 L11.75,5.92188 C11.9688,5.54688 12.237,5.27344 12.5547,5.10156 C12.8724,4.92969 13.2448,4.84375 13.6719,4.84375 C14.1094,4.84375 14.4818,4.95313 14.7891,5.17188 C15.0964,5.39063 15.3229,5.71354 15.4688,6.14063 M25.4531,5.89063 L25.4531,2.64063 L26.4375,2.64063 L26.4375,11 L25.4531,11 L25.4531,10.0938 C25.2448,10.4583 24.9818,10.7266 24.6641,10.8984 C24.3464,11.0703 23.9635,11.1563 23.5156,11.1563 C22.7969,11.1563 22.2083,10.8672 21.75,10.2891 C21.2917,9.71094 21.0625,8.94792 21.0625,8 C21.0625,7.05208 21.2917,6.28906 21.75,5.71094 C22.2083,5.13281 22.7969,4.84375 23.5156,4.84375 C23.9635,4.84375 24.3464,4.92969 24.6641,5.10156 C24.9818,5.27344 25.2448,5.53646 25.4531,5.89063 M22.0781,8 C22.0781,8.72917 22.2292,9.29948 22.5313,9.71094 C22.8333,10.1224 23.2448,10.3281 23.7656,10.3281 C24.2865,10.3281 24.6979,10.1224 25,9.71094 C25.3021,9.29948 25.4531,8.72917 25.4531,8 C25.4531,7.27083 25.3021,6.70052 25,6.28906 C24.6979,5.8776 24.2865,5.67188 23.7656,5.67188 C23.2448,5.67188 22.8333,5.8776 22.5313,6.28906 C22.2292,6.70052 22.0781,7.27083 22.0781,8 M33.0313,12.8281 L33.0313,13.5938 L27.3125,13.5938 L27.3125,12.8281 L33.0313,12.8281 M33.25,4.98438 L34.2969,4.98438 L36.1719,10.0313 L38.0625,4.98438 L39.1094,4.98438 L36.8438,11 L35.5,11 L33.25,4.98438 M45.6094,7.75 L45.6094,8.23438 L41.0625,8.23438 C41.1042,8.91146 41.3073,9.42708 41.6719,9.78125 C42.0365,10.1354 42.5469,10.3125 43.2031,10.3125 C43.5885,10.3125 43.9583,10.2656 44.3125,10.1719 C44.6667,10.0781 45.0208,9.94271 45.375,9.76563 L45.375,10.6875 C45.0208,10.8438 44.6563,10.9609 44.2813,11.0391 C43.9063,11.1172 43.5313,11.1563 43.1563,11.1563 C42.1875,11.1563 41.4245,10.8776 40.8672,10.3203 C40.3099,9.76302 40.0313,9.00521 40.0313,8.04688 C40.0313,7.06771 40.2969,6.28906 40.8281,5.71094 C41.3594,5.13281 42.0781,4.84375 42.9844,4.84375 C43.7865,4.84375 44.4245,5.10417 44.8984,5.625 C45.3724,6.14583 45.6094,6.85417 45.6094,7.75 M44.6094,7.45313 C44.6094,6.91146 44.4609,6.47917 44.1641,6.15625 C43.8672,5.83333 43.474,5.67188 42.9844,5.67188 C42.4323,5.67188 41.9922,5.82813 41.6641,6.14063 C41.3359,6.45313 41.1458,6.89063 41.0938,7.45313 L44.6094,7.45313 M47.2188,2.64063 L48.2188,2.64063 L48.2188,11 L47.2188,11 L47.2188,2.64063"/>
</g>

<g fill="none" stroke="#000000" stroke-opacity="1" stroke-width="1" stroke-linecap="square" stroke-linejoin="bevel" transform="matrix(2,0,0,2,29.764,22)"
font-family="sans" font-size="11" font-weight="100" font-style="normal" 
>
</g>

<g fill="none" stroke="#000000" stroke-opacity="1" stroke-width="1" stroke-linecap="square" stroke-linejoin="bevel" transform="matrix(2,0,0,2,29.764,22)"
font-family="Ubuntu" font-size="11" font-weight="400" font-style="normal" 
>
</g>

<g fill="none" stroke="#000000" stroke-opacity="1" stroke-width="1" stroke-linecap="square" stroke-linejoin="bevel" transform="matrix(2,0,0,2,-0.0016,72)"
font-family="Ubuntu" font-size="11" font-weight="400" font-style="normal" 
>
</g>

<g fill="none" stroke="#000000" stroke-opacity="1" stroke-width="1" stroke-linecap="square" stroke-linejoin="bevel" transform="matrix(2,0,0,2,-0.0016,72)"
font-family="Ubuntu" font-size="11" font-weight="400" font-style="normal" 
>
</g>

<g fill="none" stroke="#000000" stroke-opacity="1" stroke-width="1" stroke-linecap="square" stroke-linejoin="bevel" transform="matrix(2,0,0,2,-0.0016,72)"
font-family="Ubuntu" font-size="11" font-weight="400" font-style="normal" 
>
</g>

<g fill="none" stroke="#000000" stroke-opacity="1" stroke-width="1" stroke-linecap="square" stroke-linejoin="round" transform="matrix(2,0,0,2,-0.0016,72)"
font-family="Ubuntu" font-size="11" font-weight="400" font-style="normal" 
>
<ellipse cx="145" cy="-18" rx="51.4948" ry="17.5"/>
</g>

<g fill="none" stroke="#000000" stroke-opacity="1" stroke-width="1" stroke-linecap="square" stroke-linejoin="bevel" transform="matrix(2,0,0,2,-0.0016,72)"
font-family="Ubuntu" font-size="11" font-weight="400" font-style="normal" 
>
</g>

<g fill="none" stroke="#000000" stroke-opacity="1" stroke-width="1" stroke-linecap="square" stroke-linejoin="bevel" transform="matrix(2,0,0,2,240.233,22)"
font-family="Ubuntu" font-size="11" font-weight="400" font-style="normal" 
>
</g>

<g fill="none" stroke="#000000" stroke-opacity="1" stroke-width="1" stroke-linecap="square" stroke-linejoin="bevel" transform="matrix(2,0,0,2,240.233,22)"
font-family="sans" font-size="11" font-weight="100" font-style="normal" 
>
</g>

<g fill="#000000" fill-opacity="1" stroke="#000000" stroke-opacity="1" stroke-width="1" stroke-linecap="square" stroke-linejoin="round" transform="matrix(2,0,0,2,240.233,22)"
font-family="sans" font-size="11" font-weight="100" font-style="normal" 
>
<path vector-effect="none" fill-rule="nonzero" d="M2.79688,2.98438 L3.70313,2.98438 L0.90625,12.0156 L0,12.0156 L2.79688,2.98438 M8.57813,5.15625 L8.57813,6.09375 C8.29688,5.94792 8.00521,5.84115 7.70313,5.77344 C7.40104,5.70573 7.08854,5.67188 6.76563,5.67188 C6.27604,5.67188 5.90885,5.7474 5.66406,5.89844 C5.41927,6.04948 5.29688,6.27083 5.29688,6.5625 C5.29688,6.79167 5.38542,6.97135 5.5625,7.10156 C5.73958,7.23177 6.09375,7.35938 6.625,7.48438 L6.95313,7.5625 C7.66146,7.70833 8.16146,7.91927 8.45313,8.19531 C8.74479,8.47135 8.89063,8.85417 8.89063,9.34375 C8.89063,9.89583 8.67188,10.3359 8.23438,10.6641 C7.79688,10.9922 7.1875,11.1563 6.40625,11.1563 C6.08333,11.1563 5.7474,11.125 5.39844,11.0625 C5.04948,11 4.68229,10.9063 4.29688,10.7813 L4.29688,9.76563 C4.66146,9.95313 5.02083,10.0938 5.375,10.1875 C5.72917,10.2813 6.08333,10.3281 6.4375,10.3281 C6.89583,10.3281 7.25,10.2474 7.5,10.0859 C7.75,9.92448 7.875,9.70313 7.875,9.42188 C7.875,9.15104 7.78646,8.94271 7.60938,8.79688 C7.43229,8.65104 7.03646,8.51563 6.42188,8.39063 L6.07813,8.29688 C5.46354,8.17188 5.02083,7.97656 4.75,7.71094 C4.47917,7.44531 4.34375,7.07813 4.34375,6.60938 C4.34375,6.04688 4.54427,5.61198 4.94531,5.30469 C5.34635,4.9974 5.91667,4.84375 6.65625,4.84375 C7.02083,4.84375 7.36458,4.86979 7.6875,4.92188 C8.01042,4.97396 8.30729,5.05208 8.57813,5.15625 M10.3594,8.625 L10.3594,4.98438 L11.3438,4.98438 L11.3438,8.59375 C11.3438,9.15625 11.4557,9.58073 11.6797,9.86719 C11.9036,10.1536 12.2344,10.2969 12.6719,10.2969 C13.2135,10.2969 13.638,10.1276 13.9453,9.78906 C14.2526,9.45052 14.4063,8.98438 14.4063,8.39063 L14.4063,4.98438 L15.3906,4.98438 L15.3906,11 L14.4063,11 L14.4063,10.0781 C14.1667,10.4427 13.888,10.7135 13.5703,10.8906 C13.2526,11.0677 12.8854,11.1563 12.4688,11.1563 C11.7813,11.1563 11.2578,10.9401 10.8984,10.5078 C10.5391,10.0755 10.3594,9.44792 10.3594,8.625 M21.75,8 C21.75,7.27083 21.599,6.70052 21.2969,6.28906 C20.9948,5.8776 20.5833,5.67188 20.0625,5.67188 C19.5417,5.67188 19.1328,5.8776 18.8359,6.28906 C18.5391,6.70052 18.3906,7.27083 18.3906,8 C18.3906,8.72917 18.5391,9.29948 18.8359,9.71094 C19.1328,10.1224 19.5417,10.3281 20.0625,10.3281 C20.5833,10.3281 20.9948,10.1224 21.2969,9.71094 C21.599,9.29948 21.75,8.72917 21.75,8 M18.3906,5.89063 C18.5885,5.53646 18.8464,5.27344 19.1641,5.10156 C19.4818,4.92969 19.8646,4.84375 20.3125,4.84375 C21.0417,4.84375 21.6328,5.13281 22.0859,5.71094 C22.5391,6.28906 22.7656,7.05208 22.7656,8 C22.7656,8.94792 22.5391,9.71094 22.0859,10.2891 C21.6328,10.8672 21.0417,11.1563 20.3125,11.1563 C19.8646,11.1563 19.4818,11.0703 19.1641,10.8984 C18.8464,10.7266 18.5885,10.4583 18.3906,10.0938 L18.3906,11 L17.3906,11 L17.3906,2.64063 L18.3906,2.64063 L18.3906,5.89063 M28.9688,12.8281 L28.9688,13.5938 L23.25,13.5938 L23.25,12.8281 L28.9688,12.8281 M30.8594,10.0938 L30.8594,13.2813 L29.8594,13.2813 L29.8594,4.98438 L30.8594,4.98438 L30.8594,5.89063 C31.0573,5.53646 31.3151,5.27344 31.6328,5.10156 C31.9505,4.92969 32.3333,4.84375 32.7813,4.84375 C33.5104,4.84375 34.1016,5.13281 34.5547,5.71094 C35.0078,6.28906 35.2344,7.05208 35.2344,8 C35.2344,8.94792 35.0078,9.71094 34.5547,10.2891 C34.1016,10.8672 33.5104,11.1563 32.7813,11.1563 C32.3333,11.1563 31.9505,11.0703 31.6328,10.8984 C31.3151,10.7266 31.0573,10.4583 30.8594,10.0938 M34.2188,8 C34.2188,7.27083 34.0677,6.70052 33.7656,6.28906 C33.4635,5.8776 33.0521,5.67188 32.5313,5.67188 C32.0104,5.67188 31.6016,5.8776 31.3047,6.28906 C31.0078,6.70052 30.8594,7.27083 30.8594,8 C30.8594,8.72917 31.0078,9.29948 31.3047,9.71094 C31.6016,10.1224 32.0104,10.3281 32.5313,10.3281 C33.0521,10.3281 33.4635,10.1224 33.7656,9.71094 C34.0677,9.29948 34.2188,8.72917 34.2188,8 M36.7656,8.625 L36.7656,4.98438 L37.75,4.98438 L37.75,8.59375 C37.75,9.15625 37.862,9.58073 38.0859,9.86719 C38.3099,10.1536 38.6406,10.2969 39.0781,10.2969 C39.6198,10.2969 40.0443,10.1276 40.3516,9.78906 C40.6589,9.45052 40.8125,8.98438 40.8125,8.39063 L40.8125,4.98438 L41.7969,4.98438 L41.7969,11 L40.8125,11 L40.8125,10.0781 C40.5729,10.4427 40.2943,10.7135 39.9766,10.8906 C39.6589,11.0677 39.2917,11.1563 38.875,11.1563 C38.1875,11.1563 37.6641,10.9401 37.3047,10.5078 C36.9453,10.0755 36.7656,9.44792 36.7656,8.625 M48.1563,8 C48.1563,7.27083 48.0052,6.70052 47.7031,6.28906 C47.401,5.8776 46.9896,5.67188 46.4688,5.67188 C45.9479,5.67188 45.5391,5.8776 45.2422,6.28906 C44.9453,6.70052 44.7969,7.27083 44.7969,8 C44.7969,8.72917 44.9453,9.29948 45.2422,9.71094 C45.5391,10.1224 45.9479,10.3281 46.4688,10.3281 C46.9896,10.3281 47.401,10.1224 47.7031,9.71094 C48.0052,9.29948 48.1563,8.72917 48.1563,8 M44.7969,5.89063 C44.9948,5.53646 45.2526,5.27344 45.5703,5.10156 C45.888,4.92969 46.2708,4.84375 46.7188,4.84375 C47.4479,4.84375 48.0391,5.13281 48.4922,5.71094 C48.9453,6.28906 49.1719,7.05208 49.1719,8 C49.1719,8.94792 48.9453,9.71094 48.4922,10.2891 C48.0391,10.8672 47.4479,11.1563 46.7188,11.1563 C46.2708,11.1563 45.888,11.0703 45.5703,10.8984 C45.2526,10.7266 44.9948,10.4583 44.7969,10.0938 L44.7969,11 L43.7969,11 L43.7969,2.64063 L44.7969,2.64063 L44.7969,5.89063"/>
</g>

<g fill="none" stroke="#000000" stroke-opacity="1" stroke-width="1" stroke-linecap="square" stroke-linejoin="bevel" transform="matrix(2,0,0,2,240.233,22)"
font-family="sans" font-size="11" font-weight="100" font-style="normal" 
>
</g>

<g fill="none" stroke="#000000" stroke-opacity="1" stroke-width="1" stroke-linecap="square" stroke-linejoin="bevel" transform="matrix(2,0,0,2,240.233,22)"
font-family="Ubuntu" font-size="11" font-weight="400" font-style="normal" 
>
</g>

<g fill="none" stroke="#000000" stroke-opacity="1" stroke-width="1" stroke-linecap="square" stroke-linejoin="bevel" transform="matrix(2,0,0,2,-0.0016,72)"
font-family="Ubuntu" font-size="11" font-weight="400" font-style="normal" 
>
</g>

<g fill="none" stroke="#000000" stroke-opacity="1" stroke-width="1" stroke-linecap="square" stroke-linejoin="bevel" transform="matrix(2,0,0,2,-0.0016,72)"
font-family="Ubuntu" font-size="11" font-weight="400" font-style="normal" 
>
</g>

<g fill="none" stroke="#000000" stroke-opacity="1" stroke-width="1" stroke-linecap="square" stroke-linejoin="bevel" transform="matrix(2,0,0,2,-0.0016,72)"
font-family="Ubuntu" font-size="11" font-weight="400" font-style="normal" 
>
</g>

<g fill="none" stroke="#000000" stroke-opacity="1" stroke-width="1" stroke-linecap="square" stroke-linejoin="round" transform="matrix(2,0,0,2,-0.0016,72)"
font-family="Ubuntu" font-size="11" font-weight="400" font-style="normal" 
>
<rect x="211.49" y="-35.5" width="72.0008" height="35"/>
</g>

<g fill="none" stroke="#000000" stroke-opacity="1" stroke-width="1" stroke-linecap="square" stroke-linejoin="bevel" transform="matrix(2,0,0,2,-0.0016,72)"
font-family="Ubuntu" font-size="11" font-weight="400" font-style="normal" 
>
</g>

<g fill="none" stroke="#000000" stroke-opacity="1" stroke-width="1" stroke-linecap="square" stroke-linejoin="bevel" transform="matrix(2,0,0,2,451.619,22)"
font-family="Ubuntu" font-size="11" font-weight="400" font-style="normal" 
>
</g>

<g fill="none" stroke="#000000" stroke-opacity="1" stroke-width="1" stroke-linecap="square" stroke-linejoin="bevel" transform="matrix(2,0,0,2,451.619,22)"
font-family="sans" font-size="11" font-weight="100" font-style="normal" 
>
</g>

<g fill="#000000" fill-opacity="1" stroke="#000000" stroke-opacity="1" stroke-width="1" stroke-linecap="square" stroke-linejoin="round" transform="matrix(2,0,0,2,451.619,22)"
font-family="sans" font-size="11" font-weight="100" font-style="normal" 
>
<path vector-effect="none" fill-rule="nonzero" d="M2.79688,2.98438 L3.70313,2.98438 L0.90625,12.0156 L0,12.0156 L2.79688,2.98438 M9.0625,5.21875 L9.0625,6.14063 C8.79167,5.98438 8.51563,5.86719 8.23438,5.78906 C7.95313,5.71094 7.66667,5.67188 7.375,5.67188 C6.73958,5.67188 6.24479,5.875 5.89063,6.28125 C5.53646,6.6875 5.35938,7.26042 5.35938,8 C5.35938,8.72917 5.53646,9.29688 5.89063,9.70313 C6.24479,10.1094 6.73958,10.3125 7.375,10.3125 C7.66667,10.3125 7.95313,10.276 8.23438,10.2031 C8.51563,10.1302 8.79167,10.0156 9.0625,9.85938 L9.0625,10.7656 C8.79167,10.901 8.50781,11 8.21094,11.0625 C7.91406,11.125 7.59896,11.1563 7.26563,11.1563 C6.35938,11.1563 5.64063,10.8724 5.10938,10.3047 C4.57813,9.73698 4.3125,8.96875 4.3125,8 C4.3125,7.02083 4.58073,6.25 5.11719,5.6875 C5.65365,5.125 6.39063,4.84375 7.32813,4.84375 C7.64063,4.84375 7.9401,4.875 8.22656,4.9375 C8.51302,5 8.79167,5.09375 9.0625,5.21875 M15.7813,7.375 L15.7813,11 L14.7969,11 L14.7969,7.40625 C14.7969,6.83333 14.6875,6.40625 14.4688,6.125 C14.25,5.84375 13.9167,5.70313 13.4688,5.70313 C12.9375,5.70313 12.5182,5.8724 12.2109,6.21094 C11.9036,6.54948 11.75,7.01042 11.75,7.59375 L11.75,11 L10.75,11 L10.75,2.64063 L11.75,2.64063 L11.75,5.92188 C11.9792,5.55729 12.2552,5.28646 12.5781,5.10938 C12.901,4.93229 13.2708,4.84375 13.6875,4.84375 C14.375,4.84375 14.8958,5.05729 15.25,5.48438 C15.6042,5.91146 15.7813,6.54167 15.7813,7.375 M20.4844,7.96875 C19.6927,7.96875 19.1432,8.0625 18.8359,8.25 C18.5286,8.4375 18.375,8.75 18.375,9.1875 C18.375,9.53125 18.4896,9.80729 18.7188,10.0156 C18.9479,10.224 19.2604,10.3281 19.6563,10.3281 C20.2083,10.3281 20.6484,10.1328 20.9766,9.74219 C21.3047,9.35156 21.4688,8.83854 21.4688,8.20313 L21.4688,7.96875 L20.4844,7.96875 M22.4531,7.5625 L22.4531,11 L21.4688,11 L21.4688,10.0938 C21.25,10.4583 20.9714,10.7266 20.6328,10.8984 C20.2943,11.0703 19.8802,11.1563 19.3906,11.1563 C18.776,11.1563 18.2865,10.9844 17.9219,10.6406 C17.5573,10.2969 17.375,9.83333 17.375,9.25 C17.375,8.57292 17.6016,8.0625 18.0547,7.71875 C18.5078,7.375 19.1875,7.20313 20.0938,7.20313 L21.4688,7.20313 L21.4688,7.10938 C21.4688,6.65104 21.3203,6.29688 21.0234,6.04688 C20.7266,5.79688 20.3073,5.67188 19.7656,5.67188 C19.4219,5.67188 19.0859,5.71354 18.7578,5.79688 C18.4297,5.88021 18.1146,6.00521 17.8125,6.17188 L17.8125,5.26563 C18.1771,5.11979 18.5313,5.01302 18.875,4.94531 C19.2188,4.8776 19.5469,4.84375 19.8594,4.84375 C20.7344,4.84375 21.3854,5.06771 21.8125,5.51563 C22.2396,5.96354 22.4531,6.64583 22.4531,7.5625 M25.4688,3.28125 L25.4688,4.98438 L27.5,4.98438 L27.5,5.75 L25.4688,5.75 L25.4688,9.01563 C25.4688,9.50521 25.5365,9.82031 25.6719,9.96094 C25.8073,10.1016 26.0781,10.1719 26.4844,10.1719 L27.5,10.1719 L27.5,11 L26.4844,11 C25.724,11 25.1979,10.8568 24.9063,10.5703 C24.6146,10.2839 24.4688,9.76563 24.4688,9.01563 L24.4688,5.75 L23.75,5.75 L23.75,4.98438 L24.4688,4.98438 L24.4688,3.28125 L25.4688,3.28125 M29.7813,3.28125 L29.7813,4.98438 L31.8125,4.98438 L31.8125,5.75 L29.7813,5.75 L29.7813,9.01563 C29.7813,9.50521 29.849,9.82031 29.9844,9.96094 C30.1198,10.1016 30.3906,10.1719 30.7969,10.1719 L31.8125,10.1719 L31.8125,11 L30.7969,11 C30.0365,11 29.5104,10.8568 29.2188,10.5703 C28.9271,10.2839 28.7813,9.76563 28.7813,9.01563 L28.7813,5.75 L28.0625,5.75 L28.0625,4.98438 L28.7813,4.98438 L28.7813,3.28125 L29.7813,3.28125 M38.2656,7.75 L38.2656,8.23438 L33.7188,8.23438 C33.7604,8.91146 33.9635,9.42708 34.3281,9.78125 C34.6927,10.1354 35.2031,10.3125 35.8594,10.3125 C36.2448,10.3125 36.6146,10.2656 36.9688,10.1719 C37.3229,10.0781 37.6771,9.94271 38.0313,9.76563 L38.0313,10.6875 C37.6771,10.8438 37.3125,10.9609 36.9375,11.0391 C36.5625,11.1172 36.1875,11.1563 35.8125,11.1563 C34.8438,11.1563 34.0807,10.8776 33.5234,10.3203 C32.9661,9.76302 32.6875,9.00521 32.6875,8.04688 C32.6875,7.06771 32.9531,6.28906 33.4844,5.71094 C34.0156,5.13281 34.7344,4.84375 35.6406,4.84375 C36.4427,4.84375 37.0807,5.10417 37.5547,5.625 C38.0286,6.14583 38.2656,6.85417 38.2656,7.75 M37.2656,7.45313 C37.2656,6.91146 37.1172,6.47917 36.8203,6.15625 C36.5234,5.83333 36.1302,5.67188 35.6406,5.67188 C35.0885,5.67188 34.6484,5.82813 34.3203,6.14063 C33.9922,6.45313 33.8021,6.89063 33.75,7.45313 L37.2656,7.45313 M43.3594,5.90625 C43.2552,5.84375 43.138,5.79688 43.0078,5.76563 C42.8776,5.73438 42.7344,5.71875 42.5781,5.71875 C42.0156,5.71875 41.5859,5.90104 41.2891,6.26563 C40.9922,6.63021 40.8438,7.15104 40.8438,7.82813 L40.8438,11 L39.8438,11 L39.8438,4.98438 L40.8438,4.98438 L40.8438,5.92188 C41.0417,5.55729 41.3073,5.28646 41.6406,5.10938 C41.974,4.93229 42.3802,4.84375 42.8594,4.84375 C42.9323,4.84375 43.0078,4.84635 43.0859,4.85156 C43.1641,4.85677 43.2552,4.86979 43.3594,4.89063 L43.3594,5.90625"/>
</g>

<g fill="none" stroke="#000000" stroke-opacity="1" stroke-width="1" stroke-linecap="square" stroke-linejoin="bevel" transform="matrix(2,0,0,2,451.619,22)"
font-family="sans" font-size="11" font-weight="100" font-style="normal" 
>
</g>

<g fill="none" stroke="#000000" stroke-opacity="1" stroke-width="1" stroke-linecap="square" stroke-linejoin="bevel" transform="matrix(2,0,0,2,451.619,22)"
font-family="Ubuntu" font-size="11" font-weight="400" font-style="normal" 
>
</g>

<g fill="none" stroke="#000000" stroke-opacity="1" stroke-width="1" stroke-linecap="square" stroke-linejoin="bevel" transform="matrix(2,0,0,2,-0.0016,72)"
font-family="Ubuntu" font-size="11" font-weight="400" font-style="normal" 
>
</g>

<g fill="none" stroke="#000000" stroke-opacity="1" stroke-width="1" stroke-linecap="square" stroke-linejoin="bevel" transform="matrix(2,0,0,2,-0.0016,72)"
font-family="Ubuntu" font-size="11" font-weight="400" font-style="normal" 
>
</g>

<g fill="none" stroke="#000000" stroke-opacity="1" stroke-width="1" stroke-linecap="square" stroke-linejoin="bevel" transform="matrix(2,0,0,2,-0.0016,72)"
font-family="Ubuntu" font-size="11" font-weight="400" font-style="normal" 
>
</g>

<g fill="none" stroke="#000000" stroke-opacity="1" stroke-width="1" stroke-linecap="square" stroke-linejoin="round" transform="matrix(2,0,0,2,-0.0016,72)"
font-family="Ubuntu" font-size="11" font-weight="400" font-style="normal" 
>
<path vector-effect="none" fill-rule="evenodd" d="M79.038,-18 C80.159,-18 81.288,-18 82.424,-18 "/>
</g>

<g fill="none" stroke="#000000" stroke-opacity="1" stroke-width="1" stroke-linecap="square" stroke-linejoin="bevel" transform="matrix(2,0,0,2,-0.0016,72)"
font-family="Ubuntu" font-size="11" font-weight="400" font-style="normal" 
>
</g>

<g fill="none" stroke="#000000" stroke-opacity="1" stroke-width="1" stroke-linecap="square" stroke-linejoin="bevel" transform="matrix(2,0,0,2,-0.0016,72)"
font-family="Ubuntu" font-size="11" font-weight="400" font-style="normal" 
>
</g>

<g fill="#000000" fill-opacity="1" stroke="#000000" stroke-opacity="1" stroke-width="1" stroke-linecap="square" stroke-linejoin="round" transform="matrix(2,0,0,2,-0.0016,72)"
font-family="Ubuntu" font-size="11" font-weight="400" font-style="normal" 
>
<path vector-effect="none" fill-rule="evenodd" d="M82.424,-18 L82.424,-14.381 L92.764,-18 L82.424,-21.619 L82.424,-18"/>
</g>

<g fill="none" stroke="#000000" stroke-opacity="1" stroke-width="1" stroke-linecap="square" stroke-linejoin="bevel" transform="matrix(2,0,0,2,-0.0016,72)"
font-family="Ubuntu" font-size="11" font-weight="400" font-style="normal" 
>
</g>

<g fill="none" stroke="#000000" stroke-opacity="1" stroke-width="1" stroke-linecap="square" stroke-linejoin="bevel" transform="matrix(2,0,0,2,-0.0016,72)"
font-family="Ubuntu" font-size="11" font-weight="400" font-style="normal" 
>
</g>

<g fill="none" stroke="#000000" stroke-opacity="1" stroke-width="1" stroke-linecap="square" stroke-linejoin="bevel" transform="matrix(2,0,0,2,-0.0016,72)"
font-family="Ubuntu" font-size="11" font-weight="400" font-style="normal" 
>
</g>

<g fill="none" stroke="#000000" stroke-opacity="1" stroke-width="1" stroke-linecap="square" stroke-linejoin="bevel" transform="matrix(2,0,0,2,-0.0016,72)"
font-family="Ubuntu" font-size="11" font-weight="400" font-style="normal" 
>
</g>

<g fill="none" stroke="#000000" stroke-opacity="1" stroke-width="1" stroke-linecap="square" stroke-linejoin="round" transform="matrix(2,0,0,2,-0.0016,72)"
font-family="Ubuntu" font-size="11" font-weight="400" font-style="normal" 
>
<path vector-effect="none" fill-rule="evenodd" d="M197.13,-18 C198.29,-18 199.45,-18 200.61,-18 "/>
</g>

<g fill="none" stroke="#000000" stroke-opacity="1" stroke-width="1" stroke-linecap="square" stroke-linejoin="bevel" transform="matrix(2,0,0,2,-0.0016,72)"
font-family="Ubuntu" font-size="11" font-weight="400" font-style="normal" 
>
</g>

<g fill="none" stroke="#000000" stroke-opacity="1" stroke-width="1" stroke-linecap="square" stroke-linejoin="bevel" transform="matrix(2,0,0,2,-0.0016,72)"
font-family="Ubuntu" font-size="11" font-weight="400" font-style="normal" 
>
</g>

<g fill="#000000" fill-opacity="1" stroke="#000000" stroke-opacity="1" stroke-width="1" stroke-linecap="square" stroke-linejoin="round" transform="matrix(2,0,0,2,-0.0016,72)"
font-family="Ubuntu" font-size="11" font-weight="400" font-style="normal" 
>
<path vector-effect="none" fill-rule="evenodd" d="M200.61,-18 L200.61,-14.3985 L210.9,-18 L200.61,-21.6015 L200.61,-18"/>
</g>

<g fill="none" stroke="#000000" stroke-opacity="1" stroke-width="1" stroke-linecap="square" stroke-linejoin="bevel" transform="matrix(2,0,0,2,-0.0016,72)"
font-family="Ubuntu" font-size="11" font-weight="400" font-style="normal" 
>
</g>

<g fill="none" stroke="#000000" stroke-opacity="1" stroke-width="1" stroke-linecap="square" stroke-linejoin="bevel" transform="matrix(1,0,0,1,0,0)"
font-family="Ubuntu" font-size="11" font-weight="400" font-style="normal" 
>
</g>
</g>
</svg>
